<svg xmlns="http://www.w3.org/2000/svg" viewBox="0 0 108 84.02"><defs><style>.cls-1{fill:#fff;}</style></defs><g id="Layer_2" data-name="Layer 2"><g id="Layer_1-2" data-name="Layer 1"><path class="cls-1" d="M44,0H64a4,4,0,0,1,4,4V84a0,0,0,0,1,0,0H40a0,0,0,0,1,0,0V4A4,4,0,0,1,44,0Z"/><path class="cls-1" d="M84.17,23h19.65A4.17,4.17,0,0,1,108,27.22V84a0,0,0,0,1,0,0H80a0,0,0,0,1,0,0V27.22A4.17,4.17,0,0,1,84.17,23Z"/><path class="cls-1" d="M4.37,50.59H23.63A4.37,4.37,0,0,1,28,55V84a0,0,0,0,1,0,0H0a0,0,0,0,1,0,0V55A4.37,4.37,0,0,1,4.37,50.59Z"/></g></g></svg>