<svg xmlns="http://www.w3.org/2000/svg" viewBox="0 0 59.09 72.49"><defs><style>.cls-1{fill:#fff;}</style></defs><g id="Layer_2" data-name="Layer 2"><g id="Layer_1-2" data-name="Layer 1"><path class="cls-1" d="M58.53,69.21l-7.6-7.6a12.42,12.42,0,1,0-2.71,2.72l7.59,7.6a1.92,1.92,0,0,0,2.72-2.72ZM40.86,62.89a8.64,8.64,0,1,1,8.63-8.63A8.63,8.63,0,0,1,40.86,62.89Z"/><path class="cls-1" d="M24.18,54.26a16.53,16.53,0,0,1,1-5.69H8.9a2.11,2.11,0,0,1,0-4.21H27.44A16.76,16.76,0,0,1,32,40.16H8.9A2.11,2.11,0,0,1,8.9,36H46.82a2.09,2.09,0,0,1,1.6,3.45,16.85,16.85,0,0,1,7.3,7.29V21.17a2.12,2.12,0,0,0-.62-1.49L36,.62A2.1,2.1,0,0,0,34.55,0H6.31A6.32,6.32,0,0,0,0,6.31V63.1a6.31,6.31,0,0,0,6.31,6.31H33.9A16.7,16.7,0,0,1,24.18,54.26Zm9.1-47.51a.53.53,0,0,1,.9-.37L48.76,21a.52.52,0,0,1-.37.89H34.33a1,1,0,0,1-1-1.05ZM8.9,27.54H46.82a2.1,2.1,0,1,1,0,4.2H8.9a2.1,2.1,0,0,1,0-4.2Z"/></g></g></svg>