<svg xmlns="http://www.w3.org/2000/svg" viewBox="0 0 105.96 132"><defs><style>.cls-1{fill:#fff;}</style></defs><g id="Layer_2" data-name="Layer 2"><g id="Layer_1-2" data-name="Layer 1"><path class="cls-1" d="M68.28,83.66a1.86,1.86,0,0,0,1-.71,2.1,2.1,0,0,0,.34-1.25,2.21,2.21,0,0,0-.34-1.29,2,2,0,0,0-1-.73,4.18,4.18,0,0,0-1.5-.24H65v4.43h1.75A4.72,4.72,0,0,0,68.28,83.66Z"/><path class="cls-1" d="M51,80.14a3.94,3.94,0,0,0-4.15,0,3.6,3.6,0,0,0-1.28,1.71,9.17,9.17,0,0,0,0,5.55,3.6,3.6,0,0,0,1.28,1.71,3.94,3.94,0,0,0,4.15,0,3.53,3.53,0,0,0,1.28-1.71,9,9,0,0,0,0-5.55A3.53,3.53,0,0,0,51,80.14Z"/><path class="cls-1" d="M104.79,37.42,68.54,1.17A4,4,0,0,0,65.71,0H12A12,12,0,0,0,0,12V120a12,12,0,0,0,12,12H94a12,12,0,0,0,12-12V40.25A4,4,0,0,0,104.79,37.42ZM34.19,93.77H29.44L26.33,83.55h-.15L23.07,93.77H18.32L12.93,75.48h5.54L21,86.73h.14l3-11.25h4.36l3,11.29h.14l2.51-11.29h5.54Zm22.4-4A8,8,0,0,1,53.38,93a10,10,0,0,1-9,0,8,8,0,0,1-3.2-3.18,11.81,11.81,0,0,1,0-10.29,8,8,0,0,1,3.2-3.17,10,10,0,0,1,9,0,8,8,0,0,1,3.21,3.17,11.76,11.76,0,0,1,0,10.31Zm13.37,4-3.21-6H65v6h-5V75.48H68a8,8,0,0,1,3.57.74,5.51,5.51,0,0,1,2.37,2.13,6.29,6.29,0,0,1,.85,3.35A6,6,0,0,1,73.88,85a5.34,5.34,0,0,1-2.24,1.93l3.72,6.83Zm21.93-4.24a7.56,7.56,0,0,1-3.16,3.15,10.07,10.07,0,0,1-4.83,1.09h-7V75.48h7a10.25,10.25,0,0,1,4.88,1.09,7.66,7.66,0,0,1,3.18,3.15,11.3,11.3,0,0,1,0,9.81ZM92,41.58H65.29a2,2,0,0,1-2-2V12.85A1,1,0,0,1,65,12.14L92.74,39.87A1,1,0,0,1,92,41.58Z"/><path class="cls-1" d="M86,80.13a5.93,5.93,0,0,0-2.41-.44H81.83v9.87h1.89A5.62,5.62,0,0,0,86,89.12a3,3,0,0,0,1.46-1.51,9,9,0,0,0,0-6A3,3,0,0,0,86,80.13Z"/></g></g></svg>