<svg xmlns="http://www.w3.org/2000/svg" viewBox="0 0 105.96 132"><defs><style>.cls-1{fill:#fff;}</style></defs><g id="Layer_2" data-name="Layer 2"><g id="Layer_1-2" data-name="Layer 1"><path class="cls-1" d="M27,77.07H22.19c-.16,0-.23.08-.23.24v7.38a.2.2,0,0,0,.23.23H27a4.48,4.48,0,0,0,3.11-1.07A3.62,3.62,0,0,0,31.3,81a3.73,3.73,0,0,0-1.19-2.87A4.41,4.41,0,0,0,27,77.07Z"/><path class="cls-1" d="M55,77.07H50.27a.21.21,0,0,0-.24.24v19a.21.21,0,0,0,.24.24h4.81a3.88,3.88,0,0,0,3-1.33,5.46,5.46,0,0,0,1.21-3.58V82a5.19,5.19,0,0,0-1.19-3.58A4,4,0,0,0,55,77.07Z"/><path class="cls-1" d="M104.79,37.42,68.54,1.17A4,4,0,0,0,65.71,0H12A12,12,0,0,0,0,12V120a12,12,0,0,0,12,12H94a12,12,0,0,0,12-12V40.25A4,4,0,0,0,104.79,37.42ZM63.29,12.85A1,1,0,0,1,65,12.14L92.74,39.87A1,1,0,0,1,92,41.58H65.29a2,2,0,0,1-2-2ZM37.63,86.23a9.18,9.18,0,0,1-3.9,3.6,12.91,12.91,0,0,1-5.84,1.26h-5.7a.2.2,0,0,0-.23.23v11.26a.54.54,0,0,1-.17.4.53.53,0,0,1-.39.16H14.76a.53.53,0,0,1-.39-.16.54.54,0,0,1-.17-.4V71a.54.54,0,0,1,.17-.4.53.53,0,0,1,.39-.16h13.5a11.79,11.79,0,0,1,5.63,1.31,9.22,9.22,0,0,1,3.79,3.66A10.89,10.89,0,0,1,39,80.86,10.37,10.37,0,0,1,37.63,86.23Zm29.46,6.68a9.5,9.5,0,0,1-1.55,5.37,9.86,9.86,0,0,1-4.34,3.6,15.6,15.6,0,0,1-6.45,1.26H42.84a.55.55,0,0,1-.56-.56V71a.55.55,0,0,1,.56-.56H54.75A15.6,15.6,0,0,1,61.2,71.7a9.86,9.86,0,0,1,4.34,3.6,9.5,9.5,0,0,1,1.55,5.37Zm27.23-16.4a.55.55,0,0,1-.56.56H79.14c-.16,0-.23.08-.23.24v5.74c0,.16.07.24.23.24h9.39a.55.55,0,0,1,.56.56v5.46a.55.55,0,0,1-.56.56H79.14c-.16,0-.23.08-.23.24v12.47a.54.54,0,0,1-.17.4.53.53,0,0,1-.39.16H71.71a.51.51,0,0,1-.39-.16.54.54,0,0,1-.17-.4V71a.54.54,0,0,1,.17-.4.51.51,0,0,1,.39-.16H93.76a.55.55,0,0,1,.56.56Z"/></g></g></svg>