<svg xmlns="http://www.w3.org/2000/svg" viewBox="0 0 82.37 65.6"><defs><style>.cls-1{fill:#003383;}</style></defs><g id="Layer_2" data-name="Layer 2"><g id="Layer_1-2" data-name="Layer 1"><path class="cls-1" d="M78.49,0H5.24A5.25,5.25,0,0,0,0,5.24V60.35A5.25,5.25,0,0,0,5.24,65.6H78.49a3.88,3.88,0,0,0,3.88-3.88V3.88A3.88,3.88,0,0,0,78.49,0Zm-.71,61H37.25V4.59H77.78Z"/><path class="cls-1" d="M48.5,35.06H61.1l-3.67,3.67a2.25,2.25,0,0,0,3.19,3.18l7.52-7.52a2.25,2.25,0,0,0,0-3.18l-7.52-7.52a2.25,2.25,0,0,0-3.19,3.18l3.67,3.67H48.5a2.26,2.26,0,1,0,0,4.51Z"/></g></g></svg>