<svg xmlns="http://www.w3.org/2000/svg" viewBox="0 0 125.68 100.09"><defs><style>.cls-1{fill:#003383;}</style></defs><g id="Layer_2" data-name="Layer 2"><g id="Layer_1-2" data-name="Layer 1"><path class="cls-1" d="M76.84,0h48.84a0,0,0,0,1,0,0V100.09a0,0,0,0,1,0,0H76.84a8,8,0,0,1-8-8V8A8,8,0,0,1,76.84,0Z" transform="translate(194.51 100.09) rotate(180)"/><rect class="cls-1" x="6.6" width="112.07" height="7"/><rect class="cls-1" x="6.81" y="93.09" width="111.87" height="7"/><path class="cls-1" d="M-46.54,46.54H53.54a0,0,0,0,1,0,0v1.08a5.92,5.92,0,0,1-5.92,5.92H-40.62a5.92,5.92,0,0,1-5.92-5.92V46.54a0,0,0,0,1,0,0Z" transform="translate(53.54 46.54) rotate(90)"/><path class="cls-1" d="M36.79,41l5.59,5.6H23.15a3.44,3.44,0,1,0,0,6.88H42.38l-5.59,5.6A3.44,3.44,0,0,0,41.65,64L53.12,52.48a3.44,3.44,0,0,0,0-4.87L41.65,36.14A3.44,3.44,0,0,0,36.79,41Z"/></g></g></svg>