<svg xmlns="http://www.w3.org/2000/svg" viewBox="0 0 46.3 46.3"><defs><style>.cls-1{fill:#003383;}</style></defs><g id="Layer_2" data-name="Layer 2"><g id="Layer_1-2" data-name="Layer 1"><path class="cls-1" d="M23.15,0h1.48l1.43,0,.69,0,1.34.08,1.28.11c10.85,1.05,15.4,5.4,16.59,16l.07.68.11,1.28.09,1.68,0,.35,0,1.42v3l0,1.42,0,.69-.08,1.35L46,29.38C45,40.23,40.63,44.77,30,46l-.67.06-1.28.11-1.68.1h-.35l-1.43,0h-3l-1.42,0-.7,0-1.34-.08L16.92,46C6.07,45,1.53,40.63.33,30.05l-.07-.67L.16,28.1l-.1-1.69v-.35l0-1.42v-3l0-1.42,0-.69.08-1.34.1-1.28C1.32,6.07,5.66,1.53,16.25.34l.67-.07L18.2.16l1.69-.1h.34l1.43,0Zm0,20.84H20.56a2.32,2.32,0,0,0,0,4.6l.27,0v6.94l0,.27a2.31,2.31,0,0,0,2,2l.27,0h2.31l.27,0a2.31,2.31,0,0,0,2-2l0-.27,0-.27a2.3,2.3,0,0,0-1.77-2l-.26-.05h-.27V22.88a2.34,2.34,0,0,0-2-2Zm0-6.95-.29,0a2.31,2.31,0,0,0,0,4.59l.27,0,.29,0a2.31,2.31,0,0,0,0-4.59Z"/></g></g></svg>