<svg width="200" height="94" viewBox="0 0 200 94" fill="none" xmlns="http://www.w3.org/2000/svg">
<path d="M13.248 66.7343C13.248 66.7343 20.8919 74.2546 29.4441 75.2038L28.375 69.617C28.375 69.617 16.0199 69.2625 14.0425 66.7343H13.248Z" fill="#00335B"/>
<path d="M139.416 27.2456C143.894 29.2808 147.35 32.1723 149.782 35.9203C152.214 39.6683 153.426 44.1038 153.418 49.2267C153.418 54.2852 152.206 58.7041 149.782 62.4833C147.358 66.2626 143.902 69.1532 139.416 71.1551C134.927 73.1668 129.64 74.1716 123.553 74.1697H109.688V93.1918H93.7603V24.1959H123.553C129.64 24.1959 134.927 25.2125 139.416 27.2456ZM133.574 58.0479C136.063 55.9776 137.307 53.0372 137.307 49.2267C137.307 45.3479 136.063 42.3743 133.574 40.306C131.086 38.2377 127.447 37.2045 122.659 37.2064H109.688V61.1562H122.659C127.441 61.1562 131.078 60.1221 133.568 58.0537L133.574 58.0479Z" fill="#003383"/>
<path d="M113.718 61.2295H96.1929L79.7399 24.3394H64.055L39.7508 79.027C39.0703 80.5599 38.7826 82.2391 38.9137 83.912C39.0448 85.5848 39.5907 87.1982 40.5017 88.6056C41.4127 90.013 42.6599 91.1698 44.1299 91.9707C45.6 92.7717 47.2463 93.1914 48.9193 93.1918H49.7371L57.5883 74.1492H85.9204L93.7716 93.1918H107.549C107.862 93.1917 108.17 93.1131 108.445 92.9632C108.72 92.8132 108.954 92.5966 109.124 92.3332C109.295 92.0697 109.397 91.7677 109.421 91.4546C109.445 91.1415 109.391 90.8273 109.264 90.5405L101.962 74.1345H113.735L113.718 61.2295ZM72.4583 41.5687L80.5811 61.2295H63.021L71.1439 41.5569C71.1993 41.4276 71.2917 41.3175 71.4093 41.2405C71.5269 41.1636 71.6645 41.1232 71.805 41.1245C71.9454 41.1257 72.0823 41.1685 72.1985 41.2476C72.3147 41.3266 72.4051 41.4383 72.4583 41.5687Z" fill="#003383"/>
<path d="M200 61.1767V84.7369C196.223 87.5529 191.982 89.68 187.47 91.021C182.828 92.4639 177.997 93.2016 173.137 93.2094C166.238 93.2094 160.036 91.7338 154.531 88.7827C149.167 85.9645 144.683 81.7145 141.575 76.5017C138.442 71.2635 136.875 65.3437 136.875 58.7422C136.875 52.1407 138.442 46.2219 141.575 40.9857C144.161 36.6418 147.725 32.9656 151.982 30.2515C152.829 29.7036 153.711 29.1909 154.61 28.7046C160.142 25.775 166.359 24.2994 173.26 24.2779H176.137C196.875 28.5786 199.092 34.9945 199.284 36.8754V37.4174H174.893C174.656 37.4174 174.419 37.4174 174.18 37.4174C173.94 37.4174 173.651 37.4174 173.391 37.4174C169.471 37.5209 165.966 38.4056 162.876 40.0716C159.647 41.7872 156.978 44.3976 155.186 47.592C153.351 50.8283 152.434 54.5391 152.434 58.7246C152.434 62.8515 153.351 66.5331 155.186 69.7694C156.976 72.9615 159.625 75.5846 162.83 77.3396C166.085 79.1501 169.803 80.0544 173.981 80.0524C178.413 80.0524 182.405 79.1003 185.957 77.196V61.1767H200Z" fill="#003383"/>
<path d="M47.6572 61.2295C47.6572 61.2295 15.8844 61.083 6.36543 55.7715C4.98388 55.001 4.65967 54.5675 3.85352 53.1349C3.85352 53.1349 6.42677 66.0253 45.598 65.8671L47.6572 61.2295Z" fill="#00335B"/>
<path d="M109.687 42.3304C108.046 39.2923 82.5032 39.9866 68.1503 40.886C68.1503 40.886 -11.7082 47.0383 15.1167 68.3602C14.4858 67.7538 -2.9194 49.8039 109.687 47.217V42.3304Z" fill="#F6B73E"/>
<path d="M199.299 37.4291C198.56 32.7417 175.67 29.0913 151.982 28.4439C126.129 27.7378 99.3278 28.4439 99.3278 28.4439C-13.2673 31.5552 4.87977 55.2384 5.51067 55.9561C-21.3201 30.3745 58.5442 22.9918 58.5442 22.9918C122.134 18.1403 160.905 18.8903 180.051 22.8483C200.789 27.149 199.121 34.9946 199.328 36.8871C199.341 37.0683 199.332 37.2504 199.299 37.4291Z" fill="#F6B73E"/>
<path d="M25.898 76.3728C25.898 40.2357 48.9872 9.73519 80.5818 0.128906C56.3389 12.7644 39.4448 38.5804 38.5218 68.6092C38.4926 69.4881 38.481 70.367 38.481 71.2312C38.4792 75.2033 38.7603 79.1703 39.3222 83.1021C39.366 83.5064 39.4244 83.9019 39.5032 84.2945C40.1955 87.772 43.2419 91.4985 49.7408 93.1801C49.7408 93.1801 26.0236 95.3715 25.7578 82.4723L25.898 76.3728Z" fill="#F6B73E"/>
<path d="M80.5815 0.128909C80.5815 0.128909 87.869 -2.99116 80.5815 21.4684L75.4175 21.7965C75.4175 21.7965 83.3826 -1.48825 79.9652 0.454099" fill="#00335B"/>
<path d="M200 54.7901H176.218V67.6893H200V54.7901Z" fill="#003383"/>
</svg>
