<svg width="80" height="69" viewBox="0 0 80 69" fill="none" xmlns="http://www.w3.org/2000/svg">
<g clip-path="url(#clip0_205_6)">
<path d="M24.1985 0L32.5361 69H35.0753L33.0481 0H24.1985Z" fill="white"/>
<path d="M12.6464 12.7379L19.1216 40.3847L13.2832 43.7408L6.0704 24.0343L0 34.4992L19.9968 69H22.5296L16.2336 51.8006L21.1344 48.9829L25.8224 69H28.36L20.0208 0.0270996L12.6464 12.7379Z" fill="white"/>
<path d="M46.8657 0L43.3377 35.8499L42.6001 0.0143355H37.2241L39.2513 69H40.0753H44.0193H44.2657L52.0913 0H46.8657Z" fill="white"/>
<path d="M75.2336 42.7166L80 34.4992L62.0336 3.49627V3.49468H62.0321L61.9073 3.27805L61.816 3.12036L61.7664 3.03754L60.0208 0.0270782L56.216 0L48.4417 69H52.4992H54.3408H59.9121L61.0352 67.1937L61.0544 67.2049L61.4 66.6076L61.4112 66.5884L66.2273 58.2627L61.9776 55.8193L55.2 61.6857L56.8769 47.4028L68.6064 54.1452L72.8496 46.8293L57.9504 38.2647L60.3569 17.7776L72.1169 33.7108L71.0304 40.3099L75.2336 42.7166Z" fill="white"/>
</g>
<defs>
<clipPath id="clip0_205_6">
<rect width="80" height="69" fill="white"/>
</clipPath>
</defs>
</svg>
