<svg xmlns="http://www.w3.org/2000/svg" viewBox="0 0 100.93 70.65"><defs><style>.cls-1{fill:#fff;}</style></defs><g id="Layer_2" data-name="Layer 2"><g id="Layer_1-2" data-name="Layer 1"><path class="cls-1" d="M85.76,26.51c0-.43,0-.85,0-1.28A25.24,25.24,0,0,0,38.68,12.65,15.12,15.12,0,0,0,15.14,25.23a15.18,15.18,0,0,0,1,5.46,20.18,20.18,0,0,0,4,40h58a22.71,22.71,0,0,0,7.54-44.14ZM63.65,44.07a2.32,2.32,0,0,1-3.27,0l-7.61-7.6V58.61a2.31,2.31,0,0,1-4.62,0V36.46l-7.61,7.62a2.31,2.31,0,0,1-3.27-3.27L48.83,29.26a2.3,2.3,0,0,1,3.27,0h0L63.65,40.8A2.3,2.3,0,0,1,63.65,44.07Z"/></g></g></svg>