<svg id="Object" height="300" viewBox="0 0 32 32" width="300" xmlns="http://www.w3.org/2000/svg" version="1.1" xmlns:xlink="http://www.w3.org/1999/xlink" xmlns:svgjs="http://svgjs.dev/svgjs"><g transform="matrix(1,0,0,1,0,0)"><path d="m30.71 7.29-6-6a1 1 0 0 0 -.71-.29h-2v8a2 2 0 0 1 -2 2h-8a2 2 0 0 1 -2-2v-8h-6a3 3 0 0 0 -3 3v24a3 3 0 0 0 3 3h2v-9a3 3 0 0 1 3-3h14a3 3 0 0 1 3 3v9h2a3 3 0 0 0 3-3v-20a1 1 0 0 0 -.29-.71z" fill="#ffffffff" data-original-color="#000000ff" stroke="none"/><path d="m12 1h8v8h-8z" fill="#ffffffff" data-original-color="#000000ff" stroke="none"/><path d="m23 21h-14a1 1 0 0 0 -1 1v9h16v-9a1 1 0 0 0 -1-1z" fill="#ffffffff" data-original-color="#000000ff" stroke="none"/></g></svg>